# xmcd
#
# Track frame offsets:
#	150
#	16200
#	34800
#
# Disc length: 623 seconds
#
# Revision: 0
# Processed by: cddbd v1.5.2PL0 Copyright (c) Steve Scherf et al.
# Submitted via: audiograbber 1.83.01
#
DISCID=19026d03
DTITLE=Michelle Branch - Breathe [single]
DYEAR=2003
DGENRE=Rock
TTITLE0=Breathe
TTITLE1='Til I Get Over You [acoustic live]
TTITLE2=Desperately [acoustic live]
EXTD=
EXTT0=
EXTT1=
EXTT2=
PLAYORDER=
